<mxfile host="drawio-plugin" modified="2021-09-11T07:42:03.503Z" agent="5.0 (Windows NT 6.2; Win64; x64) AppleWebKit/537.36 (KHTML, like Gecko) Chrome/84.0.4147.105 Safari/537.36" etag="iarTpUa-XArnipEx8e5N" version="14.7.4" type="embed"><diagram id="42VnshdguW7JTlLc05d8" name="Page-1"><mxGraphModel dx="1097" dy="411" grid="1" gridSize="10" guides="1" tooltips="1" connect="1" arrows="1" fold="1" page="1" pageScale="1" pageWidth="850" pageHeight="1100" math="0" shadow="0"><root><mxCell id="0"/><mxCell id="1" parent="0"/><mxCell id="3" value="Spring Core&lt;br&gt;" style="whiteSpace=wrap;html=1;" parent="1" vertex="1"><mxGeometry x="50" y="122" width="120" height="60" as="geometry"/></mxCell><mxCell id="14" value="Parent boot 2" style="rounded=0;whiteSpace=wrap;html=1;" vertex="1" parent="1"><mxGeometry x="250" y="122" width="120" height="60" as="geometry"/></mxCell><mxCell id="15" value="" style="rounded=0;whiteSpace=wrap;html=1;" vertex="1" parent="1"><mxGeometry x="260" y="240" width="120" height="60" as="geometry"/></mxCell></root></mxGraphModel></diagram></mxfile>